<?xml version="1.0" standalone="no"?>
<!DOCTYPE svg PUBLIC "-//W3C//DTD SVG 20010904//EN"
 "http://www.w3.org/TR/2001/REC-SVG-20010904/DTD/svg10.dtd">
<svg version="1.0" xmlns="http://www.w3.org/2000/svg"
 width="291.000000pt" height="50.000000pt" viewBox="0 0 291.000000 50.000000"
 preserveAspectRatio="xMidYMid meet">
<metadata>
Created by potrace 1.16, written by Peter Selinger 2001-2019
</metadata>
<g transform="translate(0.000000,50.000000) scale(0.026944,-0.006944)"
fill="#000000" stroke="none">
<path d="M0 3600 l0 -3600 5400 0 5400 0 0 3600 0 3600 -5400 0 -5400 0 0
-3600z m5062 413 c359 -625 364 -636 360 -695 -3 -42 -6 -49 -28 -54 -31 -8
-26 -13 -134 176 l-85 150 -247 0 c-137 0 -248 2 -248 5 0 3 11 28 25 55 l25
50 186 0 c166 0 185 2 180 16 -6 15 -71 129 -172 302 -26 45 -51 82 -54 82 -3
0 -47 -74 -98 -163 -51 -89 -142 -247 -203 -352 -61 -104 -127 -218 -146 -253
-22 -40 -40 -61 -49 -58 -7 3 -15 0 -18 -7 -5 -9 -7 -9 -12 1 -3 6 -10 10 -15
6 -13 -8 -10 8 5 29 18 23 9 70 -12 62 -14 -5 -14 -4 0 12 8 10 22 32 30 48
22 43 72 134 126 229 26 46 110 194 187 329 l140 246 66 1 66 0 125 -217z
m1179 210 c134 -4 237 -9 227 -11 -23 -5 -32 -32 -10 -32 10 0 13 -3 7 -8 -6
-4 -10 -14 -10 -22 0 -8 -4 -18 -10 -22 -5 -4 1 -9 15 -10 14 -1 -105 -5 -265
-8 l-290 -5 -3 -362 -2 -363 188 0 c104 0 229 -3 279 -6 l90 -7 -1 -51 -1 -51
-338 -3 -337 -2 -2 371 -3 372 -104 -179 c-58 -98 -120 -205 -139 -238 l-34
-58 -18 28 c-9 16 -35 61 -57 99 -22 39 -66 114 -97 168 -31 54 -56 102 -56
106 0 5 -6 14 -14 20 -8 7 -22 34 -32 62 -10 27 -21 49 -25 49 -14 0 -29 62
-19 79 5 9 10 12 10 6 0 -5 5 -3 10 5 14 22 13 -5 -1 -32 -8 -15 -8 -23 1 -32
8 -8 10 -7 5 7 -4 10 -2 17 4 17 7 0 11 14 9 35 -1 19 -6 35 -10 35 -4 0 -5 8
-2 18 5 14 4 15 -5 2 -9 -13 -11 -13 -11 3 0 9 5 17 10 17 21 0 48 -37 140
-195 51 -88 107 -184 124 -212 17 -29 34 -49 38 -45 3 4 59 99 123 212 65 113
123 215 131 228 14 21 21 22 128 22 62 0 223 -3 357 -7z m269 -441 c0 -10 5
-23 12 -30 8 -8 8 -12 1 -12 -6 0 -10 -10 -9 -22 1 -22 -4 -23 -89 -30 -105
-8 -343 1 -351 13 -3 5 -1 9 5 9 13 0 8 24 -9 46 -9 11 -10 15 -2 10 6 -4 12
-2 12 3 0 6 -6 11 -12 11 -9 0 -8 4 2 10 8 5 108 10 228 10 198 0 212 -1 212
-18z"/>
</g>
</svg>
